<?xml version="1.0" encoding="UTF-8" standalone="no"?>
<!-- Created with Inkscape (http://www.inkscape.org/) -->

<svg
   width="895.85699"
   height="500"
   viewBox="0 0 237.02882 132.29167"
   version="1.1"
   id="svg1"
   xml:space="preserve"
   inkscape:version="1.4 (86a8ad7, 2024-10-11)"
   sodipodi:docname="dreki-icon.svg"
   xmlns:inkscape="http://www.inkscape.org/namespaces/inkscape"
   xmlns:sodipodi="http://sodipodi.sourceforge.net/DTD/sodipodi-0.dtd"
   xmlns:xlink="http://www.w3.org/1999/xlink"
   xmlns="http://www.w3.org/2000/svg"
   xmlns:svg="http://www.w3.org/2000/svg"><sodipodi:namedview
     id="namedview1"
     pagecolor="#ffffff"
     bordercolor="#000000"
     borderopacity="0.25"
     inkscape:showpageshadow="2"
     inkscape:pageopacity="0.0"
     inkscape:pagecheckerboard="0"
     inkscape:deskcolor="#d1d1d1"
     inkscape:document-units="mm"
     showgrid="false"
     inkscape:zoom="0.81156706"
     inkscape:cx="457.75638"
     inkscape:cy="106.58392"
     inkscape:window-width="1920"
     inkscape:window-height="1171"
     inkscape:window-x="-9"
     inkscape:window-y="-9"
     inkscape:window-maximized="1"
     inkscape:current-layer="layer1"><inkscape:grid
       id="grid1"
       units="mm"
       originx="0"
       originy="0"
       spacingx="0.26458333"
       spacingy="0.26458334"
       empcolor="#0099e5"
       empopacity="0.30196078"
       color="#0099e5"
       opacity="0.14901961"
       empspacing="5"
       enabled="true"
       visible="false" /></sodipodi:namedview><defs
     id="defs1"><linearGradient
       id="linearGradient1"
       inkscape:collect="always"><stop
         style="stop-color:#0f00aa;stop-opacity:1;"
         offset="0"
         id="stop1" /><stop
         style="stop-color:#d52700;stop-opacity:1;"
         offset="1"
         id="stop2" /></linearGradient><linearGradient
       inkscape:collect="always"
       xlink:href="#linearGradient1"
       id="linearGradient2"
       x1="-1.194243e-07"
       y1="66.145832"
       x2="237.02883"
       y2="66.145832"
       gradientUnits="userSpaceOnUse" /></defs><g
     inkscape:label="Lag 1"
     inkscape:groupmode="layer"
     id="layer1"><path
       style="fill:url(#linearGradient2);stroke-width:1"
       d="m 183.08107,128.01184 c -0.004,-0.56294 -1.15792,-3.36789 -2.5636,-6.23322 -10.40781,-21.21513 -36.67982,-39.916142 -56.07593,-39.916142 -2.44383,0 -5.55918,0.33582 -6.92299,0.746268 -1.3638,0.410439 -2.57973,0.646182 -2.70205,0.523866 -0.36333,-0.363328 1.40689,-6.291159 3.34905,-11.214685 1.93647,-4.909138 5.32046,-11.243931 8.09259,-15.149276 2.75173,-3.876591 0.51086,-2.199517 -3.58682,2.684406 -12.32513,14.689957 -19.66447,32.500467 -19.66447,47.720103 0,2.3474 -0.20571,4.268 -0.45717,4.268 -0.71671,0 -3.507642,-3.38504 -4.670904,-5.6652 -1.487929,-2.91658 -2.921522,-8.869705 -3.8446,-15.965081 C 91.910829,73.489565 83.584598,62.898267 71.81861,61.551807 l -3.235232,-0.370229 4.589794,-3.422361 c 9.57617,-7.140424 22.723632,-12.280751 36.861168,-14.411783 2.72633,-0.410952 6.21916,-0.77142 7.76185,-0.801034 1.54266,-0.02964 3.37859,-0.255964 4.07981,-0.503016 2.03702,-0.71766 -17.07903,-0.05634 -21.67403,0.749796 -8.799247,1.543753 -18.529134,4.590859 -24.988889,7.82576 -9.273394,4.643917 -18.142149,11.965602 -23.254572,19.198039 -2.003441,2.834222 -2.547926,3.332526 -2.832122,2.591923 -0.597991,-1.558339 0.640888,-5.956491 3.824661,-13.577974 4.114513,-9.849523 4.82055,-12.758888 4.559093,-18.786584 -0.183935,-4.240474 -0.418804,-5.252236 -1.882954,-8.111348 -0.920044,-1.796606 -2.768802,-4.334088 -4.108352,-5.638851 -2.680619,-2.611012 -8.426659,-5.852446 -12.740652,-7.18722 -2.025675,-0.626758 -2.509255,-0.937236 -1.785702,-1.146508 6.323961,-1.829079 31.482645,-2.224868 42.810397,-0.673472 13.398577,1.835006 22.620252,3.912718 35.623082,8.026142 4.44637,1.406597 8.1738,2.467972 8.28316,2.358598 C 124.31901,27.061797 106.9097,19.410009 99.708148,17.122691 75.32562,9.3784726 51.476278,7.8824489 14.015818,11.747354 1.4251189,13.046378 -0.34115484,13.178161 0.04749904,12.789503 0.57492465,12.262077 16.553931,7.8768153 22.175453,6.7167258 35.027296,4.0645502 40.435811,3.5803612 57.10889,3.5893771 c 16.575926,0.00942 19.950124,0.3252011 33.403509,3.1306157 8.536708,1.7801456 22.598521,6.5290812 31.363601,10.5920642 7.2409,3.356463 19.16013,10.129015 24.22228,13.763192 l 2.54826,1.829413 h -2.43715 c -7.37355,0 -12.70937,7.076026 -9.72917,12.902252 1.39029,2.717988 3.62773,5.309461 12.63406,14.633129 16.15891,16.728286 21.33598,23.128589 26.18679,32.374192 2.68741,5.122148 3.01682,4.73882 0.88109,-1.025269 -3.3859,-9.138114 -9.27299,-17.508336 -21.8104,-31.009889 l -4.47759,-4.821911 1.58019,-4.004091 c 4.24579,-10.758485 10.38217,-18.606245 17.13037,-21.907828 2.30139,-1.125963 3.47174,-1.348126 7.32147,-1.389791 4.89334,-0.05298 5.17744,-0.298279 1.53731,-1.327465 -2.78075,-0.786217 -6.12617,-4.049778 -6.97009,-6.799558 -0.6845,-2.230292 -0.44259,-2.38775 0.94949,-0.618004 1.26121,1.603378 3.51138,2.794692 5.27864,2.794692 0.74173,0 2.9586,-0.489026 4.92639,-1.086726 3.52082,-1.069417 7.67084,-1.116486 10.39209,-0.117866 0.53778,0.197354 -0.69637,-1.203128 -2.74257,-3.112176 -3.69686,-3.449094 -8.12076,-9.0199016 -5.8866,-7.412713 5.03995,3.62559 7.77974,5.366195 10.03107,6.372815 5.06072,2.262742 5.13124,2.221024 2.6075,-1.542538 -1.24666,-1.859089 -2.26665,-3.624983 -2.26665,-3.924204 0,-0.299232 1.20482,0.591898 2.67738,1.980275 1.47256,1.388377 4.11018,3.494603 5.86138,4.680494 3.14625,2.130603 10.27766,5.803075 12.29129,6.329641 0.57135,0.149418 1.36103,1.042527 1.75486,1.984695 0.91361,2.185662 1.66908,2.767581 4.1889,3.226545 3.98862,0.726519 7.88164,0.371464 10.21273,-0.931404 l 2.19116,-1.224656 0.32908,1.754145 c 0.18099,0.964775 1.14507,2.657338 2.14238,3.761248 1.61978,1.792899 1.77649,2.211474 1.46837,3.9219 -0.89784,4.983936 -2.31935,7.589576 -2.31935,4.251385 0,-3.602763 -1.61045,-4.172189 -3.003,-1.061805 l -0.91324,2.039764 -0.59861,-1.31382 c -0.53404,-1.17211 -0.77664,-1.268354 -2.24919,-0.892314 -3.23389,0.82582 -7.63526,0.385308 -12.74869,-1.275956 -5.30427,-1.723274 -11.09217,-2.171442 -13.9603,-1.080987 l -1.41086,0.53641 1.36923,1.121021 c 0.75307,0.616558 2.18647,2.956936 3.18532,5.20083 3.00205,6.744101 4.37669,8.871092 6.45876,9.993735 0.91012,0.490723 3.47149,-0.358511 3.47149,-1.15099 0,-0.235461 0.22949,-0.428114 0.50997,-0.428114 0.28049,0 0.50998,0.644601 0.50998,1.432462 0,0.78785 0.34372,1.877927 0.76382,2.42239 0.74558,0.966284 0.79363,0.956524 2.01217,-0.4087 1.48498,-1.663735 2.05358,-1.103387 1.58218,1.559218 -0.54723,3.090856 -0.81544,3.664146 -1.71515,3.666146 -0.47195,10e-4 -1.6222,0.46776 -2.5561,1.037134 l -1.69801,1.035238 -1.10686,-1.41422 c -3.32302,-4.245741 -5.01489,-4.90761 -11.35512,-4.442206 -2.63785,0.193628 -4.79608,0.16105 -4.79608,-0.07236 0,-0.23345 0.61962,-1.071197 1.37693,-1.861665 1.66161,-1.734343 1.84972,-4.420174 0.42022,-5.99975 -2.42023,-2.674322 -9.71877,-3.143202 -13.13118,-0.843578 -2.48225,1.672781 -3.02537,3.092007 -2.79405,7.300961 0.22409,4.077182 2.00685,8.352054 7.01722,16.82653 3.30795,5.595027 4.94192,9.869596 5.6107,14.677894 1.21033,8.701989 -2.16042,16.783451 -9.18897,22.030751 l -2.39535,1.78829 0.39211,2.37883 c 0.56449,3.42457 0.52525,12.95226 -0.0571,13.85331 -0.4094,0.63352 -0.49571,0.58907 -0.50217,-0.25856 z m 31.1008,-98.918909 c 0,-1.064673 -2.83161,-2.397122 -4.69733,-2.210395 l -1.57252,0.157385 1.98748,1.351665 c 2.23895,1.522684 4.28237,1.857341 4.28237,0.701345 z"
       id="path1" /></g></svg>
